<svg width="80" height="80" viewBox="0 0 80 80" fill="none" xmlns="http://www.w3.org/2000/svg">
<path d="M70.7576 34.697H45.303V9.24242C45.303 8.11726 44.8561 7.03819 44.0604 6.24258C43.2648 5.44697 42.1858 5 41.0606 5H38.9394C37.8142 5 36.7352 5.44697 35.9395 6.24258C35.1439 7.03819 34.697 8.11726 34.697 9.24242V34.697H9.24242C8.11726 34.697 7.03819 35.1439 6.24258 35.9395C5.44697 36.7352 5 37.8142 5 38.9394V41.0606C5 41.6177 5.10973 42.1694 5.32294 42.6841C5.53614 43.1988 5.84863 43.6665 6.24258 44.0604C6.63652 44.4544 7.1042 44.7669 7.61892 44.9801C8.13363 45.1933 8.6853 45.303 9.24242 45.303H34.697V70.7576C34.697 71.8827 35.1439 72.9618 35.9395 73.7574C36.7352 74.553 37.8142 75 38.9394 75H41.0606C41.6177 75 42.1694 74.8903 42.6841 74.6771C43.1988 74.4639 43.6665 74.1514 44.0604 73.7574C44.4544 73.3635 44.7669 72.8958 44.9801 72.3811C45.1933 71.8664 45.303 71.3147 45.303 70.7576V45.303H70.7576C71.8827 45.303 72.9618 44.8561 73.7574 44.0604C74.553 43.2648 75 42.1858 75 41.0606V38.9394C75 37.8142 74.553 36.7352 73.7574 35.9395C72.9618 35.1439 71.8827 34.697 70.7576 34.697Z" fill="#62A856"/>
</svg>
