<svg width="20" height="20" viewBox="0 0 20 20" fill="none" xmlns="http://www.w3.org/2000/svg">
<path d="M17.6894 8.67424H11.3258V2.31061C11.3258 2.02932 11.214 1.75955 11.0151 1.56064C10.8162 1.36174 10.5464 1.25 10.2652 1.25H9.73485C9.45356 1.25 9.18379 1.36174 8.98489 1.56064C8.78598 1.75955 8.67424 2.02932 8.67424 2.31061V8.67424H2.31061C2.02932 8.67424 1.75955 8.78598 1.56064 8.98489C1.36174 9.18379 1.25 9.45356 1.25 9.73485V10.2652C1.25 10.4044 1.27743 10.5423 1.33073 10.671C1.38403 10.7997 1.46216 10.9166 1.56064 11.0151C1.65913 11.1136 1.77605 11.1917 1.90473 11.245C2.03341 11.2983 2.17132 11.3258 2.31061 11.3258H8.67424V17.6894C8.67424 17.9707 8.78598 18.2405 8.98489 18.4394C9.18379 18.6383 9.45356 18.75 9.73485 18.75H10.2652C10.4044 18.75 10.5423 18.7226 10.671 18.6693C10.7997 18.616 10.9166 18.5378 11.0151 18.4394C11.1136 18.3409 11.1917 18.2239 11.245 18.0953C11.2983 17.9666 11.3258 17.8287 11.3258 17.6894V11.3258H17.6894C17.9707 11.3258 18.2405 11.214 18.4394 11.0151C18.6383 10.8162 18.75 10.5464 18.75 10.2652V9.73485C18.75 9.45356 18.6383 9.18379 18.4394 8.98489C18.2405 8.78598 17.9707 8.67424 17.6894 8.67424Z" fill="white"/>
</svg>
