<svg width="80" height="80" viewBox="0 0 80 80" fill="none" xmlns="http://www.w3.org/2000/svg">
<g clip-path="url(#clip0_273_401)">
<path d="M14.9 0L65.1 0C69.049 0.00880498 72.8338 1.58145 75.6262 4.37383C78.4186 7.16622 79.9912 10.951 80 14.9L80 65.1C79.9912 69.049 78.4186 72.8338 75.6262 75.6262C72.8338 78.4185 69.049 79.9912 65.1 80L14.9 80C10.951 79.9912 7.16622 78.4185 4.37384 75.6262C1.58145 72.8338 0.00880432 69.049 0 65.1L0 14.9C0.00880432 10.951 1.58145 7.16622 4.37384 4.37383C7.16622 1.58145 10.951 0.00880498 14.9 0ZM4.7 65.1C4.7 67.8052 5.77464 70.3996 7.68752 72.3125C9.60039 74.2254 12.1948 75.3 14.9 75.3L65.1 75.3C67.8052 75.3 70.3996 74.2254 72.3125 72.3125C74.2254 70.3996 75.3 67.8052 75.3 65.1L75.3 14.9C75.3 12.1948 74.2254 9.60038 72.3125 7.68751C70.3996 5.77464 67.8052 4.7 65.1 4.7L14.9 4.7C12.1948 4.7 9.60039 5.77464 7.68752 7.68751C5.77464 9.60038 4.7 12.1948 4.7 14.9L4.7 65.1Z" fill="#62A856"/>
<path d="M44.683 23.9333C44.9282 23.6824 45.2212 23.483 45.5446 23.3468C45.868 23.2107 46.2154 23.1405 46.5663 23.1405C46.9172 23.1405 47.2646 23.2107 47.588 23.3468C47.9114 23.483 48.2044 23.6824 48.4496 23.9333L49.383 24.9C49.6339 25.1453 49.8333 25.4382 49.9695 25.7616C50.1056 26.0851 50.1758 26.4324 50.1758 26.7833C50.1758 27.1343 50.1056 27.4816 49.9695 27.805C49.8333 28.1285 49.6339 28.4214 49.383 28.6667L38.1163 39.9667L49.383 51.3C49.6339 51.5453 49.8333 51.8382 49.9695 52.1616C50.1056 52.4851 50.1758 52.8324 50.1758 53.1834C50.1758 53.5343 50.1056 53.8816 49.9695 54.2051C49.8333 54.5285 49.6339 54.8214 49.383 55.0667L48.4496 56.0334C48.2044 56.2843 47.9114 56.4837 47.588 56.6199C47.2646 56.756 46.9172 56.8262 46.5663 56.8262C46.2154 56.8262 45.868 56.756 45.5446 56.6199C45.2212 56.4837 44.9282 56.2843 44.683 56.0334L30.583 41.8667C30.3371 41.622 30.1419 41.3311 30.0088 41.0108C29.8756 40.6904 29.8071 40.3469 29.8071 40C29.8071 39.6531 29.8756 39.3096 30.0088 38.9893C30.1419 38.6689 30.3371 38.378 30.583 38.1333L44.683 23.9333Z" fill="#62A856"/>
</g>
<defs>
<clipPath id="clip0_273_401">
<rect width="80" height="80" fill="white" transform="matrix(1 0 0 -1 0 80)"/>
</clipPath>
</defs>
</svg>
