<svg width="80" height="80" viewBox="0 0 80 80" fill="none" xmlns="http://www.w3.org/2000/svg">
<path d="M5.99122 23.5095L8.26434 21.0718C8.59723 20.7321 8.99248 20.4625 9.42751 20.2786C9.86255 20.0947 10.3288 20.0001 10.7998 20.0001C11.2707 20.0001 11.737 20.0947 12.172 20.2786C12.607 20.4625 13.0023 20.7321 13.3352 21.0718L40.3504 47.4703L66.5788 21.2205C66.9092 20.8816 67.3019 20.6127 67.7346 20.4292C68.1672 20.2457 68.6311 20.1512 69.0996 20.1512C69.5681 20.1512 70.032 20.2457 70.4646 20.4292C70.8972 20.6127 71.29 20.8816 71.6204 21.2205L73.9518 23.6284C74.284 23.9655 74.5476 24.3661 74.7275 24.8074C74.9074 25.2488 75 25.722 75 26.1999C75 26.6778 74.9074 27.151 74.7275 27.5924C74.5476 28.0337 74.284 28.4343 73.9518 28.7714L44.1681 58.4994C43.1902 59.4621 41.8842 60.0001 40.5252 60.0001C39.1662 60.0001 37.8603 59.4621 36.8824 58.4994L6.10779 28.6525C5.76785 28.3233 5.49506 27.9289 5.3051 27.4918C5.11515 27.0548 5.01178 26.5837 5.00095 26.1057C4.99011 25.6278 5.07203 25.1523 5.24197 24.7068C5.41193 24.2612 5.66656 23.8543 5.99122 23.5095Z" fill="#62A856"/>
</svg>
