<svg width="80" height="80" viewBox="0 0 80 80" fill="none" xmlns="http://www.w3.org/2000/svg">
<g clip-path="url(#clip0_273_405)">
<path d="M65.9 0H14.9C10.951 0.00880498 7.16622 1.58145 4.37384 4.37383C1.58145 7.16622 0.00880498 10.951 0 14.9L0 71.8333C0.00957545 72.3781 0.196853 72.9048 0.533333 73.3333L4.93333 78.6333C5.26623 79.0581 5.6912 79.4018 6.17621 79.6386C6.66122 79.8753 7.19363 79.9989 7.73333 80C8.26991 80.0005 8.79981 79.881 9.28427 79.6503C9.76873 79.4196 10.1955 79.0835 10.5333 78.6667L13.1333 75.5333L15.7 78.6333C16.0473 79.0354 16.4772 79.358 16.9604 79.5791C17.4435 79.8002 17.9687 79.9147 18.5 79.9147C19.0313 79.9147 19.5565 79.8002 20.0396 79.5791C20.5228 79.358 20.9527 79.0354 21.3 78.6333L23.8667 75.5L26.4667 78.6C26.814 79.0021 27.2439 79.3247 27.727 79.5458C28.2102 79.7669 28.7353 79.8813 29.2667 79.8813C29.798 79.8813 30.3231 79.7669 30.8063 79.5458C31.2895 79.3247 31.7193 79.0021 32.0667 78.6L34.6333 75.4667L37.2667 78.6333C37.6015 79.0395 38.0177 79.3709 38.4885 79.6063C38.9593 79.8417 39.4742 79.9758 40 80C40.5318 80.0003 41.0567 79.8805 41.5358 79.6497C42.0148 79.4188 42.4356 79.0828 42.7667 78.6667L45.3333 75.3333L47.9 78.5C48.2169 78.9339 48.6339 79.2848 49.1157 79.5228C49.5974 79.7607 50.1295 79.8787 50.6667 79.8667C51.1995 79.8643 51.7255 79.747 52.2087 79.5226C52.692 79.2983 53.1211 78.9722 53.4667 78.5667L55.9 75.5667C56.2409 75.1535 56.4292 74.6356 56.4333 74.1V42.4H79.7667V14.1C79.7586 10.4031 78.3024 6.85658 75.7102 4.22077C73.118 1.58496 69.5962 0.0697437 65.9 0V0ZM51.8333 13.5V73.3333L50.7667 74.6333L48.1667 71.3C47.8291 70.8936 47.4063 70.5664 46.9282 70.3418C46.45 70.1171 45.9283 70.0004 45.4 70C44.8626 69.9947 44.3311 70.112 43.8459 70.3431C43.3607 70.5741 42.9346 70.9128 42.6 71.3333L40 74.5L37.4 71.3333C37.0498 70.9416 36.6209 70.6282 36.1413 70.4136C35.6616 70.1991 35.1421 70.0881 34.6167 70.0881C34.0912 70.0881 33.5717 70.1991 33.0921 70.4136C32.6125 70.6282 32.1835 70.9416 31.8333 71.3333L29.2667 74.4667L26.6667 71.4667C26.3165 71.0749 25.8875 70.7615 25.4079 70.547C24.9283 70.3324 24.4088 70.2215 23.8833 70.2215C23.3579 70.2215 22.8384 70.3324 22.3587 70.547C21.8791 70.7615 21.4502 71.0749 21.1 71.4667L18.5333 74.6L15.9333 71.4333C15.5831 71.0416 15.1542 70.7282 14.6746 70.5136C14.195 70.299 13.6754 70.1881 13.15 70.1881C12.6246 70.1881 12.105 70.299 11.6254 70.5136C11.1458 70.7282 10.7169 71.0416 10.3667 71.4333L7.76667 74.5667L4.73333 70.9V14.9C4.74206 12.2032 5.81494 9.61893 7.71872 7.70891C9.6225 5.79888 12.2033 4.71755 14.9 4.7H55.1667C53.0387 7.14016 51.856 10.2624 51.8333 13.5ZM75.1667 37.6667H56.6667V14.1C56.5904 12.8207 56.7765 11.5394 57.2136 10.3346C57.6506 9.12993 58.3294 8.02731 59.2082 7.09453C60.0871 6.16176 61.1473 5.41854 62.3239 4.91054C63.5004 4.40254 64.7685 4.14049 66.05 4.14049C67.3316 4.14049 68.5996 4.40254 69.7761 4.91054C70.9527 5.41854 72.013 6.16176 72.8918 7.09453C73.7706 8.02731 74.4494 9.12993 74.8864 10.3346C75.3235 11.5394 75.5096 12.8207 75.4333 14.1L75.1667 37.6667Z" fill="#62A856"/>
<path d="M35.9668 39.3333C34.4618 38.7362 32.9127 38.257 31.3335 37.9V28.7C32.2619 28.9193 33.1001 29.4199 33.7335 30.1333C34.3138 30.7934 34.6646 31.6238 34.7335 32.5H40.0001C39.9648 31.4479 39.7195 30.4135 39.2787 29.4576C38.838 28.5016 38.2106 27.6434 37.4335 26.9333C35.7165 25.4938 33.572 24.6618 31.3335 24.5667V21.2333H28.5668V24.5667C26.1693 24.7153 23.8915 25.6663 22.1001 27.2667C21.2929 28.0109 20.6549 28.9198 20.2293 29.932C19.8037 30.9441 19.6005 32.0358 19.6335 33.1333C19.5384 34.7073 19.9726 36.2679 20.8668 37.5667C21.6572 38.6173 22.7168 39.435 23.9335 39.9333C25.4369 40.5435 26.9861 41.0339 28.5668 41.4V50.8C27.529 50.6691 26.5718 50.1728 25.8668 49.4C25.2365 48.6242 24.8741 47.6654 24.8335 46.6667H19.6335C19.5888 47.7266 19.7879 48.7826 20.2156 49.7535C20.6432 50.7244 21.2879 51.5842 22.1001 52.2667C23.934 53.773 26.1978 54.6598 28.5668 54.8V58.1333H31.3335V54.8C33.026 54.6924 34.6698 54.1901 36.1335 53.3333C37.4241 52.503 38.48 51.3552 39.2001 50C39.8903 48.7807 40.2467 47.401 40.2335 46C40.3287 44.4364 39.8942 42.8863 39.0001 41.6C38.2006 40.5963 37.1559 39.8157 35.9668 39.3333ZM28.5668 37.2C27.4702 36.8965 26.4561 36.3496 25.6001 35.6C25.2429 35.2445 24.9659 34.8166 24.7877 34.3452C24.6094 33.8737 24.5341 33.3696 24.5668 32.8667C24.5427 31.8099 24.9244 30.784 25.6335 30C26.4252 29.2262 27.4632 28.7544 28.5668 28.6667V37.2ZM34.2668 49.2667C33.5152 50.1266 32.4686 50.6737 31.3335 50.8V42.1333C32.422 42.44 33.4331 42.974 34.3001 43.7C34.6594 44.04 34.9386 44.4556 35.1173 44.9169C35.296 45.3781 35.3699 45.8734 35.3335 46.3667C35.3697 47.4354 34.9869 48.4761 34.2668 49.2667Z" fill="#62A856"/>
</g>
<defs>
<clipPath id="clip0_273_405">
<rect width="80" height="80" fill="white"/>
</clipPath>
</defs>
</svg>
