<svg width="80" height="80" viewBox="0 0 80 80" fill="none" xmlns="http://www.w3.org/2000/svg">
<g clip-path="url(#clip0_273_406)">
<path d="M69.1414 62.1389L48.571 41.5685L69.1414 20.9982C70.0506 20.0889 70.5615 18.8557 70.5615 17.5698C70.5615 16.2839 70.0506 15.0506 69.1414 14.1414L67.4272 12.4272C66.5179 11.5179 65.2847 11.0071 63.9988 11.0071C62.7129 11.0071 61.4796 11.5179 60.5704 12.4272L40 32.9975L19.4296 12.4272C18.5204 11.5179 17.2871 11.0071 16.0012 11.0071C14.7153 11.0071 13.4821 11.5179 12.5728 12.4272L10.8586 14.1414C10.4084 14.5916 10.0513 15.1261 9.80761 15.7143C9.56396 16.3026 9.43855 16.933 9.43855 17.5698C9.43854 18.2065 9.56395 18.837 9.80761 19.4252C10.0513 20.0134 10.4084 20.5479 10.8586 20.9982L31.429 41.5685L10.8586 62.1389C9.94937 63.0482 9.43855 64.2814 9.43855 65.5673C9.43855 66.8532 9.94936 68.0864 10.8586 68.9957L12.5728 70.7099C13.023 71.1601 13.5575 71.5173 14.1458 71.7609C14.734 72.0046 15.3645 72.13 16.0012 72.13C16.6379 72.13 17.2684 72.0046 17.8567 71.7609C18.4449 71.5173 18.9794 71.1601 19.4296 70.7099L40 50.1395L60.5704 70.7099C61.4796 71.6192 62.7129 72.13 63.9988 72.13C65.2847 72.13 66.5179 71.6192 67.4272 70.7099L69.1414 68.9957C70.0506 68.0864 70.5614 66.8532 70.5615 65.5673C70.5615 64.2814 70.0506 63.0482 69.1414 62.1389Z" fill="#62A856"/>
</g>
<defs>
<clipPath id="clip0_273_406">
<rect width="80" height="80" fill="white"/>
</clipPath>
</defs>
</svg>
