<svg width="80" height="80" viewBox="0 0 80 80" fill="none" xmlns="http://www.w3.org/2000/svg">
<g clip-path="url(#clip0_273_403)">
<path d="M39.9998 4.43333C40.349 4.43269 40.6946 4.5033 41.0156 4.64086C41.3366 4.77841 41.6261 4.98002 41.8664 5.23333L74.8331 39.5333C75.1828 39.9067 75.4162 40.3739 75.5047 40.8778C75.5932 41.3817 75.533 41.9005 75.3315 42.3707C75.13 42.841 74.7958 43.2423 74.3699 43.5258C73.944 43.8092 73.4447 43.9624 72.9331 43.9667H67.7331V73.3333C67.7604 73.938 67.5483 74.529 67.1427 74.9783C66.7371 75.4276 66.1707 75.6989 65.5664 75.7333H49.6664C49.3528 75.7377 49.0415 75.6798 48.7505 75.5628C48.4595 75.4459 48.1947 75.2723 47.9714 75.052C47.7481 74.8318 47.5707 74.5694 47.4497 74.2801C47.3287 73.9908 47.2664 73.6803 47.2664 73.3667V58.3C47.2664 57.9892 47.2052 57.6814 47.0863 57.3943C46.9674 57.1072 46.793 56.8463 46.5733 56.6265C46.3535 56.4067 46.0926 56.2324 45.8055 56.1135C45.5183 55.9945 45.2106 55.9333 44.8998 55.9333H35.0998C34.4721 55.9333 33.8701 56.1827 33.4263 56.6265C32.9824 57.0704 32.7331 57.6723 32.7331 58.3V73.3333C32.7331 73.6469 32.6708 73.9575 32.5498 74.2468C32.4288 74.5361 32.2515 74.7985 32.0282 75.0187C31.8049 75.2389 31.54 75.4125 31.249 75.5295C30.958 75.6465 30.6467 75.7044 30.3331 75.7H14.4331C13.8348 75.6655 13.2736 75.3989 12.8689 74.9569C12.4642 74.5149 12.2481 73.9323 12.2664 73.3333V43.9667H7.06644C6.55485 43.9624 6.05558 43.8092 5.62965 43.5258C5.20372 43.2423 4.86957 42.841 4.66803 42.3707C4.4665 41.9005 4.40631 41.3817 4.49482 40.8778C4.58334 40.3739 4.81672 39.9067 5.16644 39.5333L38.1331 5.23333C38.3735 4.98002 38.663 4.77841 38.984 4.64086C39.3049 4.5033 39.6506 4.43269 39.9998 4.43333ZM39.9998 0C39.0532 0.0033903 38.1169 0.196927 37.2465 0.569121C36.3762 0.941315 35.5895 1.48458 34.9331 2.16667L1.96644 36.4333C1.00485 37.4326 0.358524 38.6927 0.107984 40.0567C-0.142556 41.4206 0.0137644 42.8282 0.557471 44.1039C1.10118 45.3797 2.00824 46.4673 3.16565 47.2312C4.32306 47.9951 5.67966 48.4016 7.06644 48.4H7.83311V73.3333C7.81087 74.2227 7.96687 75.1076 8.29193 75.9358C8.61699 76.7639 9.10452 77.5187 9.72581 78.1555C10.3471 78.7923 11.0896 79.2983 11.9095 79.6437C12.7294 79.9891 13.6101 80.1669 14.4998 80.1667H30.3331C32.1169 80.1672 33.8302 79.4702 35.107 78.2245C36.3838 76.9788 37.1229 75.2833 37.1664 73.5V60.3667H42.8331V73.3333C42.8766 75.1166 43.6157 76.8122 44.8925 78.0578C46.1693 79.3035 47.8826 80.0005 49.6664 80H65.5664C66.4561 80.0003 67.3369 79.8225 68.1568 79.4771C68.9766 79.1317 69.7191 78.6256 70.3404 77.9888C70.9617 77.352 71.4492 76.5973 71.7743 75.7691C72.0993 74.9409 72.2553 74.0561 72.2331 73.1667V48.4H72.9998C74.3866 48.4016 75.7432 47.9951 76.9006 47.2312C78.058 46.4673 78.965 45.3797 79.5087 44.1039C80.0525 42.8282 80.2088 41.4206 79.9582 40.0567C79.7077 38.6927 79.0614 37.4326 78.0998 36.4333L45.0664 2.16667C44.4101 1.48458 43.6234 0.941315 42.753 0.569121C41.8826 0.196927 40.9464 0.0033903 39.9998 0V0Z" fill="#62A856"/>
</g>
<defs>
<clipPath id="clip0_273_403">
<rect width="80" height="80" fill="white"/>
</clipPath>
</defs>
</svg>
