<svg width="18" height="19" viewBox="0 0 18 19" fill="none" xmlns="http://www.w3.org/2000/svg">
<g clip-path="url(#clip0_579_45)">
<path d="M17.7375 17L11.6325 10.895C12.3782 9.90255 12.8228 8.7166 12.9132 7.47852C13.0037 6.24044 12.7362 5.00247 12.1426 3.91219C11.5491 2.8219 10.6545 1.9253 9.56558 1.32928C8.47665 0.733251 7.23928 0.462942 6.001 0.550574C4.76272 0.638206 3.57576 1.08008 2.58162 1.82353C1.58749 2.56697 0.828112 3.58062 0.394028 4.74362C-0.040057 5.90663 -0.130538 7.16994 0.133371 8.38294C0.39728 9.59594 1.00445 10.7075 1.88249 11.585C2.98244 12.6975 4.45115 13.3695 6.01208 13.4744C7.573 13.5794 9.11846 13.1102 10.3575 12.155L16.5 18.2375C16.6716 18.3518 16.8776 18.4031 17.0828 18.3827C17.288 18.3623 17.4798 18.2715 17.6256 18.1256C17.7714 17.9798 17.8623 17.788 17.8827 17.5828C17.9031 17.3776 17.8518 17.1717 17.7375 17ZM9.80249 10.325C8.90787 11.1804 7.71778 11.6579 6.47999 11.6579C5.2422 11.6579 4.0521 11.1804 3.15749 10.325C2.50162 9.66809 2.05521 8.83151 1.87465 7.92097C1.6941 7.01044 1.78751 6.06681 2.14308 5.20934C2.49866 4.35188 3.10043 3.61906 3.87236 3.1035C4.64429 2.58793 5.55172 2.31276 6.47999 2.31276C7.40825 2.31276 8.31569 2.58793 9.08761 3.1035C9.85954 3.61906 10.4613 4.35188 10.8169 5.20934C11.1725 6.06681 11.2659 7.01044 11.0853 7.92097C10.9048 8.83151 10.4583 9.66809 9.80249 10.325Z" fill="#A4A6AC"/>
</g>
<defs>
<clipPath id="clip0_579_45">
<rect width="18" height="18" fill="white" transform="translate(0 0.5)"/>
</clipPath>
</defs>
</svg>
